HIERARCHY
ROOT hip
{
  OFFSET 0 0 0
  CHANNELS 6 Xposition Yposition Zposition Zrotation Yrotation Xrotation
  JOINT abdomen
  {
    OFFSET 0 20.6881 -0.73152
    CHANNELS 3 Zrotation Xrotation Yrotation
    JOINT chest
    {
      OFFSET 0 11.7043 -0.48768
      CHANNELS 3 Zrotation Xrotation Yrotation
      JOINT neck
      {
        OFFSET 0 22.1894 -2.19456
        CHANNELS 3 Zrotation Xrotation Yrotation
        JOINT head
        {
          OFFSET -0.24384 7.07133 1.2192
          CHANNELS 3 Zrotation Xrotation Yrotation
          JOINT leftEye
          {
            OFFSET 4.14528 8.04674 8.04672
            CHANNELS 3 Zrotation Xrotation Yrotation
            End Site
            {
              OFFSET 1 0 0
            }
          }
          JOINT rightEye
          {
            OFFSET -3.6576 8.04674 8.04672
            CHANNELS 3 Zrotation Xrotation Yrotation
            End Site
            {
              OFFSET 1 0 0
            }
          }
        }
      }
      JOINT rCollar
      {
        OFFSET -2.68224 19.2634 -4.8768
        CHANNELS 3 Zrotation Xrotation Yrotation
        JOINT rShldr
        {
          OFFSET -8.77824 -1.95073 1.46304
          CHANNELS 3 Zrotation Xrotation Yrotation
          JOINT rForeArm
          {
            OFFSET -28.1742 -1.7115 0.48768
            CHANNELS 3 Zrotation Xrotation Yrotation
            JOINT rHand
            {
              OFFSET -22.5879 0.773209 7.07136
              CHANNELS 3 Zrotation Xrotation Yrotation
              JOINT rThumb1
              {
                OFFSET -1.2192 -0.487915 3.41376
                CHANNELS 3 Zrotation Xrotation Yrotation
                JOINT rThumb2
                {
                  OFFSET -3.37035 -0.52449 3.41376
                  CHANNELS 3 Zrotation Xrotation Yrotation
                  End Site
                  {
                    OFFSET -1.78271 -1.18214 1.43049
                  }
                }
              }
              JOINT rIndex1
              {
                OFFSET -7.75947 0.938293 5.60832
                CHANNELS 3 Zrotation Xrotation Yrotation
                JOINT rIndex2
                {
                  OFFSET -2.54057 -0.884171 1.56538
                  CHANNELS 3 Zrotation Xrotation Yrotation
                  End Site
                  {
                    OFFSET -1.62519 -0.234802 1.16502
                  }
                }
              }
              JOINT rMid1
              {
                OFFSET -8.24714 1.18213 3.41376
                CHANNELS 3 Zrotation Xrotation Yrotation
                JOINT rMid2
                {
                  OFFSET -3.10165 -0.590103 1.0647
                  CHANNELS 3 Zrotation Xrotation Yrotation
                  End Site
                  {
                    OFFSET -2.48547 -0.328903 0.83742
                  }
                }
              }
              JOINT rRing1
              {
                OFFSET -8.82822 0.546677 1.51678
                CHANNELS 3 Zrotation Xrotation Yrotation
                JOINT rRing2
                {
                  OFFSET -2.60934 -0.819778 -0.0198488
                  CHANNELS 3 Zrotation Xrotation Yrotation
                  End Site
                  {
                    OFFSET -2.33842 -0.294052 0.168128
                  }
                }
              }
              JOINT rPinky1
              {
                OFFSET -8.27202 -0.0477905 -0.4584
                CHANNELS 3 Zrotation Xrotation Yrotation
                JOINT rPinky2
                {
                  OFFSET -1.82734 -0.647385 -0.700984
                  CHANNELS 3 Zrotation Xrotation Yrotation
                  End Site
                  {
                    OFFSET -1.69225 -0.51767 -0.607171
                  }
                }
              }
            }
          }
        }
      }
      JOINT lCollar
      {
        OFFSET 2.68224 19.2634 -4.8768
        CHANNELS 3 Zrotation Xrotation Yrotation
        JOINT lShldr
        {
          OFFSET 8.77824 -1.95073 1.46304
          CHANNELS 3 Zrotation Xrotation Yrotation
          JOINT lForeArm
          {
            OFFSET 28.1742 -1.7115 0.48768
            CHANNELS 3 Zrotation Xrotation Yrotation
            JOINT lHand
            {
              OFFSET 22.5879 0.773209 7.07136
              CHANNELS 3 Zrotation Xrotation Yrotation
              JOINT lThumb1
              {
                OFFSET 1.2192 -0.487915 3.41376
                CHANNELS 3 Zrotation Xrotation Yrotation
                JOINT lThumb2
                {
                  OFFSET 3.37035 -0.52449 3.41376
                  CHANNELS 3 Zrotation Xrotation Yrotation
                  End Site
                  {
                    OFFSET 1.78271 -1.18214 1.43049
                  }
                }
              }
              JOINT lIndex1
              {
                OFFSET 7.75947 0.938293 5.60832
                CHANNELS 3 Zrotation Xrotation Yrotation
                JOINT lIndex2
                {
                  OFFSET 2.54057 -0.884171 1.56538
                  CHANNELS 3 Zrotation Xrotation Yrotation
                  End Site
                  {
                    OFFSET 1.62519 -0.234802 1.16502
                  }
                }
              }
              JOINT lMid1
              {
                OFFSET 8.24714 1.18213 3.41376
                CHANNELS 3 Zrotation Xrotation Yrotation
                JOINT lMid2
                {
                  OFFSET 3.10165 -0.590103 1.0647
                  CHANNELS 3 Zrotation Xrotation Yrotation
                  End Site
                  {
                    OFFSET 2.48547 -0.328903 0.83742
                  }
                }
              }
              JOINT lRing1
              {
                OFFSET 8.82822 0.546677 1.51678
                CHANNELS 3 Zrotation Xrotation Yrotation
                JOINT lRing2
                {
                  OFFSET 2.60934 -0.819778 -0.0198488
                  CHANNELS 3 Zrotation Xrotation Yrotation
                  End Site
                  {
                    OFFSET 2.33842 -0.294052 0.168128
                  }
                }
              }
              JOINT lPinky1
              {
                OFFSET 8.27202 -0.0477905 -0.4584
                CHANNELS 3 Zrotation Xrotation Yrotation
                JOINT lPinky2
                {
                  OFFSET 1.82734 -0.647385 -0.700984
                  CHANNELS 3 Zrotation Xrotation Yrotation
                  End Site
                  {
                    OFFSET 1.69225 -0.51767 -0.607171
                  }
                }
              }
            }
          }
        }
      }
    }
  }
  JOINT rButtock
  {
    OFFSET -8.77824 4.35084 1.2192
    CHANNELS 3 Zrotation Xrotation Yrotation
    JOINT rThigh
    {
      OFFSET 0 -1.70687 -2.19456
      CHANNELS 3 Zrotation Xrotation Yrotation
      JOINT rShin
      {
        OFFSET 0 -36.8199 0.73152
        CHANNELS 3 Zrotation Xrotation Yrotation
        JOINT rFoot
        {
          OFFSET 0.73152 -45.1104 -5.12064
          CHANNELS 3 Zrotation Xrotation Yrotation
          End Site
          {
            OFFSET -1.1221 -3.69964 12.103
          }
        }
      }
    }
  }
  JOINT lButtock
  {
    OFFSET 8.77824 4.35084 1.2192
    CHANNELS 3 Zrotation Xrotation Yrotation
    JOINT lThigh
    {
      OFFSET 0 -1.70687 -2.19456
      CHANNELS 3 Zrotation Xrotation Yrotation
      JOINT lShin
      {
        OFFSET 0 -36.8199 0.73152
        CHANNELS 3 Zrotation Xrotation Yrotation
        JOINT lFoot
        {
          OFFSET -0.73152 -45.1104 -5.12064
          CHANNELS 3 Zrotation Xrotation Yrotation
          End Site
          {
            OFFSET 1.1221 -3.69964 12.103
          }
        }
      }
    }
  }
}
MOTION
Frames:	7
Frame Time:	0.00833333
8.93169 84.4292 -151.205 0.0 0.0 0.0 -0.937499 -0.0046789 -0.0260743 -0.258764 -0.00545773 -0.0448328 -2.23791e-14 -7.95139e-16 2.48481e-16 -6.72016e-14 3.18055e-15 7.20594e-16 -0.0 0.0 0.0 -0.0 0.0 0.0 -1.12829e-14 -2.89247e-17 1.49089e-16 -2.3188e-13 -3.72721e-17 2.78299e-15 -4.04224e-12 1.1943e-12 5.725e-14 -4.62685e-11 -1.29058e-12 4.10292e-13 -1.09141e-10 -2.19455e-13 1.0305e-12 -1.88475e-10 -3.84847e-13 1.75885e-12 -1.09131e-10 -2.16675e-13 1.01778e-12 7.73091 5.47488 0.417314 -1.0914e-10 -2.18961e-13 1.02414e-12 2.90554 0.965183 0.102902 -1.09123e-10 -2.18464e-13 1.01937e-12 10.2786 0.731801 0.0259123 -1.09141e-10 -2.19458e-13 1.02096e-12 2.22167 -0.733487 -0.20892 -1.11805e-14 -2.89247e-17 4.96962e-17 -2.37793e-13 -2.29845e-16 5.96354e-16 -4.04412e-12 -1.22451e-12 9.54166e-14 -4.62727e-11 1.12184e-12 3.78486e-13 -1.0915e-10 -2.28594e-13 1.00506e-12 -1.88497e-10 -3.94389e-13 1.766e-12 -1.09158e-10 -2.23434e-13 1.02096e-12 -7.73091 5.47488 -0.417314 -1.09152e-10 -2.28006e-13 1.01142e-12 -2.90554 0.965183 -0.102902 -1.09162e-10 -2.28006e-13 1.01698e-12 -10.2786 0.731801 -0.0259123 -1.09149e-10 -2.29795e-13 1.01778e-12 -2.22167 -0.733487 0.20892 -2.03217e-16 0.0 -3.88251e-19 -0.229384 -1.95204 -0.013489 -0.00909697 -2.01822 -0.0753356 -0.48083 3.96951 0.135118 2.03217e-16 0.0 3.88251e-19 -1.19854 -5.36328 0.104968 4.40972e-05 4.16074 -0.0211855 0.495495 1.20191 -0.0808436
8.09495 83.4444 -150.114 -1.1449 -5.3165 -4.334 -1.13784 3.87661 -0.674004 1.14637 -2.60743 -0.147271 -2.12493 2.61597 -2.59631 1.38488 -4.18757 -4.75002 -0.0 0.0 0.0 -0.0 0.0 0.0 -7.31464e-15 2.4647e-14 7.45443e-15 18.6783 -6.75309 2.31907 -19.5014 -17.2075 15.1611 1.02024 -22.7505 -2.35599 -1.45218e-10 -3.96938e-11 1.00831e-11 -2.49677e-10 -7.07676e-11 1.23882e-11 -1.45209e-10 -3.96925e-11 1.0075e-11 7.73091 5.47488 0.417314 -1.45218e-10 -3.9694e-11 1.00802e-11 2.90554 0.965183 0.102902 -1.45202e-10 -3.96939e-11 1.00757e-11 10.2786 0.731801 0.0259123 -1.45217e-10 -3.96937e-11 1.00779e-11 2.22167 -0.733487 -0.20892 -7.25188e-15 2.46499e-14 7.31194e-15 -20.3489 8.1081 2.34434 10.1411 -7.00271 -12.3948 -0.0075791 -1.93132 0.270873 -1.2234e-10 -8.64357e-11 -4.23612e-11 -2.11465e-10 -1.49542e-10 -7.32969e-11 -1.22348e-10 -8.64326e-11 -4.23453e-11 -7.73091 5.47488 -0.417314 -1.22342e-10 -8.64372e-11 -4.23568e-11 -2.90554 0.965183 -0.102902 -1.2235e-10 -8.64372e-11 -4.23526e-11 -10.2786 0.731801 -0.0259123 -1.22339e-10 -8.64373e-11 -4.23537e-11 -2.22167 -0.733487 0.20892 -2.03217e-16 0.0 -3.88251e-19 0.796334 -4.06934 1.20869 -0.0122776 6.79331 0.0394302 -0.499987 4.26238 0.144045 2.03217e-16 0.0 3.88251e-19 -0.149402 -6.38204 -2.80266 0.00283955 10.8951 -0.105926 0.511194 1.72706 -0.0937855
8.11721 83.4485 -150.091 -0.712 -5.3252 -4.434 -1.25283 7.97466 -1.35755 2.61187 -5.34289 -0.254608 -4.11091 5.3527 -5.36719 2.0967 -8.51359 -9.86942 -0.0 0.0 0.0 -0.0 0.0 0.0 -2.91628e-15 5.06618e-14 1.19519e-14 39.022 -13.8807 4.88122 -29.3078 -31.1602 35.4569 -0.775689 -46.6491 -6.51808 -1.98278e-10 -9.09857e-11 1.91288e-11 -3.39717e-10 -1.62117e-10 2.16412e-11 -1.98268e-10 -9.09862e-11 1.91257e-11 7.73091 5.47488 0.417314 -1.98278e-10 -9.09869e-11 1.91294e-11 2.90554 0.965183 0.102902 -1.98262e-10 -9.09872e-11 1.91253e-11 10.2786 0.731801 0.0259123 -1.98276e-10 -9.09856e-11 1.91283e-11 2.22167 -0.733487 -0.20892 -2.8953e-15 5.0668e-14 1.17625e-14 -42.5984 16.6357 4.98239 17.5977 -13.3004 -26.0515 0.00430597 -3.97178 0.558096 -1.3848e-10 -1.64225e-10 -7.6326e-11 -2.39649e-10 -2.84448e-10 -1.32202e-10 -1.38489e-10 -1.64224e-10 -7.63098e-11 -7.73091 5.47488 -0.417314 -1.38482e-10 -1.64229e-10 -7.63238e-11 -2.90554 0.965183 -0.102902 -1.38489e-10 -1.64229e-10 -7.63207e-11 -10.2786 0.731801 -0.0259123 -1.3848e-10 -1.64227e-10 -7.6324e-11 -2.22167 -0.733487 0.20892 -2.03217e-16 0.0 -3.88251e-19 1.98013 -6.30598 2.5113 -0.0551081 16.1099 0.16669 -0.520339 4.57211 0.153496 2.03217e-16 0.0 3.88251e-19 0.846823 -7.43626 -5.89067 0.0285319 18.0135 -0.201523 0.528059 2.28204 -0.107481
8.03312 83.4521 -150.078 -0.6335 -5.494 -4.4919 -1.2705 11.633 -2.00647 3.92848 -7.81126 -0.354984 -5.66036 7.78319 -7.8536 2.05497 -12.214 -14.5483 -0.0 0.0 0.0 -0.0 0.0 0.0 6.21865e-16 7.39987e-14 2.20651e-14 57.7607 -20.1221 7.36046 -29.5111 -35.6653 57.7517 -10.1277 -67.3909 -17.1733 -2.17374e-10 -1.18642e-10 2.81884e-11 -3.72081e-10 -2.11533e-10 3.3647e-11 -2.17364e-10 -1.18644e-10 2.81894e-11 7.73091 5.47488 0.417314 -2.17374e-10 -1.18644e-10 2.81922e-11 2.90554 0.965183 0.102902 -2.17359e-10 -1.18645e-10 2.81883e-11 10.2786 0.731801 0.0259123 -2.17371e-10 -1.18642e-10 2.81919e-11 2.22167 -0.733487 -0.20892 6.05386e-16 7.40075e-14 2.18364e-14 -63.1936 24.1534 7.63453 21.7174 -17.0455 -38.9062 0.0322836 -5.79345 0.816327 -1.4872e-10 -2.5885e-10 -1.29094e-10 -2.57403e-10 -4.47836e-10 -2.23423e-10 -1.48729e-10 -2.58851e-10 -1.29078e-10 -7.73091 5.47488 -0.417314 -1.48722e-10 -2.58856e-10 -1.29093e-10 -2.90554 0.965183 -0.102902 -1.48727e-10 -2.58856e-10 -1.29092e-10 -10.2786 0.731801 -0.0259123 -1.4872e-10 -2.58852e-10 -1.29097e-10 -2.22167 -0.733487 0.20892 -2.03217e-16 0.0 -3.88251e-19 3.12114 -8.28971 3.68241 -0.131632 24.4161 0.294364 -0.538575 4.84813 0.161931 2.03217e-16 0.0 3.88251e-19 1.63758 -8.34746 -8.65726 0.073618 24.3637 -0.296165 0.543305 2.77737 -0.119718
7.91289 83.4512 -150.11 -0.7138 -5.5839 -4.4895 -1.22764 14.1975 -2.53569 4.89175 -9.61202 -0.435505 -6.62252 9.51004 -9.56801 1.62296 -14.6864 -17.8409 -0.0 0.0 0.0 -0.0 0.0 0.0 2.00946e-15 9.06412e-14 4.62174e-14 71.2243 -24.2801 9.2412 -28.3245 -33.1671 72.344 -42.4787 -79.6058 -50.0126 -1.5156e-10 -8.72108e-11 3.72825e-11 -2.60254e-10 -1.56118e-10 5.25348e-11 -1.5155e-10 -8.72132e-11 3.72856e-11 7.73091 5.47488 0.417314 -1.51561e-10 -8.72125e-11 3.72888e-11 2.90554 0.965183 0.102902 -1.51547e-10 -8.72136e-11 3.72848e-11 10.2786 0.731801 0.0259123 -1.51558e-10 -8.721e-11 3.72888e-11 2.22167 -0.733487 -0.20892 1.96632e-15 9.06501e-14 4.5969e-14 -78.0863 29.3076 9.75234 23.5142 -18.2164 -48.1077 0.0616767 -7.06867 0.998559 -1.44208e-10 -3.95566e-10 -2.2887e-10 -2.49082e-10 -6.82433e-10 -3.95431e-10 -1.44217e-10 -3.95568e-10 -2.28854e-10 -7.73091 5.47488 -0.417314 -1.44209e-10 -3.95572e-10 -2.2887e-10 -2.90554 0.965183 -0.102902 -1.44214e-10 -3.95572e-10 -2.2887e-10 -10.2786 0.731801 -0.0259123 -1.44207e-10 -3.95568e-10 -2.28876e-10 -2.22167 -0.733487 0.20892 -2.03217e-16 0.0 -3.88251e-19 3.96038 -9.65416 4.49885 -0.210409 30.1967 0.397072 -0.551326 5.0399 0.167803 2.03217e-16 0.0 3.88251e-19 2.13418 -8.95991 -10.59 0.119456 28.794 -0.369969 0.554001 3.12358 -0.12827
7.79179 83.4509 -150.173 -0.8661 -5.6125 -4.4784 -1.19221 15.2276 -2.91224 5.3961 -10.5143 -0.493841 -7.02522 10.3665 -10.1441 1.31929 -15.7067 -18.9741 -0.0 0.0 0.0 -0.0 0.0 0.0 7.81212e-16 9.87362e-14 1.0575e-13 76.6274 -25.5644 9.95578 -28.2437 -31.0852 77.1739 -76.7834 -81.4543 -84.4131 6.26603e-11 4.72876e-11 5.55142e-11 1.03062e-10 8.17707e-11 9.88276e-11 6.26693e-11 4.7286e-11 5.55169e-11 7.73091 5.47488 0.417314 6.26582e-11 4.72872e-11 5.55223e-11 2.90554 0.965183 0.102902 6.26709e-11 4.72857e-11 5.55177e-11 10.2786 0.731801 0.0259123 6.26601e-11 4.72895e-11 5.55219e-11 2.22167 -0.733487 -0.20892 7.26386e-16 9.87414e-14 1.05515e-13 -84.228 31.2336 10.7478 24.0668 -18.3229 -51.7429 0.075511 -7.57257 1.07097 -1.40334e-10 -6.97954e-10 -4.31841e-10 -2.40769e-10 -1.20057e-09 -7.45037e-10 -1.40343e-10 -6.97955e-10 -4.31826e-10 -7.73091 5.47488 -0.417314 -1.40335e-10 -6.97959e-10 -4.31839e-10 -2.90554 0.965183 -0.102902 -1.4034e-10 -6.97959e-10 -4.31842e-10 -10.2786 0.731801 -0.0259123 -1.40333e-10 -6.97955e-10 -4.31849e-10 -2.22167 -0.733487 0.20892 -2.03217e-16 0.0 -3.88251e-19 4.2739 -10.1514 4.79857 -0.247635 32.4366 0.441353 -0.556292 5.11352 0.170067 2.03217e-16 0.0 3.88251e-19 2.30082 -9.18166 -11.3399 0.141248 30.5334 -0.400956 0.558056 3.2609 -0.131636
7.7401 83.4515 -150.189 -0.7903 -5.5642 -4.485 -1.18718 15.1633 -3.16939 5.57367 -10.7731 -0.535418 -7.08182 10.6104 -9.89486 1.26077 -15.7549 -18.514 -0.0 0.0 0.0 -0.0 0.0 0.0 -2.33429e-15 1.00687e-13 1.89805e-13 76.1245 -24.8275 9.75728 -28.2407 -31.3904 76.7592 -72.7269 -81.4345 -80.3517 3.81479e-10 2.54436e-10 7.98401e-11 6.4365e-10 4.48296e-10 1.63849e-10 3.81486e-10 2.54437e-10 7.98403e-11 7.73091 5.47488 0.417314 3.81475e-10 2.54438e-10 7.98492e-11 2.90554 0.965183 0.102902 3.81486e-10 2.54436e-10 7.98435e-11 10.2786 0.731801 0.0259123 3.81475e-10 2.5444e-10 7.9848e-11 2.22167 -0.733487 -0.20892 -2.3901e-15 1.00685e-13 1.89606e-13 -83.887 30.8971 10.7921 24.0301 -18.3599 -51.4151 0.0741033 -7.52594 1.06425 -1.35902e-10 -1.1136e-09 -7.06744e-10 -2.30722e-10 -1.91248e-09 -1.21843e-09 -1.35911e-10 -1.1136e-09 -7.06729e-10 -7.73091 5.47488 -0.417314 -1.35901e-10 -1.1136e-09 -7.06739e-10 -2.90554 0.965183 -0.102902 -1.35907e-10 -1.1136e-09 -7.06745e-10 -10.2786 0.731801 -0.0259123 -1.359e-10 -1.1136e-09 -7.06751e-10 -2.22167 -0.733487 0.20892 -2.03217e-16 0.0 -3.88251e-19 4.19286 -10.0321 4.72495 -0.242682 32.1478 0.435882 -0.555679 5.10277 0.169752 2.03217e-16 0.0 3.88251e-19 2.25419 -9.13356 -11.241 0.139128 30.351 -0.397135 0.557317 3.24902 -0.131292
